<svg xmlns="http://www.w3.org/2000/svg" xmlns:xlink="http://www.w3.org/1999/xlink" viewBox="0 0 65 65" fill="#fff" fill-rule="evenodd" stroke="#000" stroke-linecap="round" stroke-linejoin="round"><use xlink:href="#A" x=".5" y=".5"/><symbol id="A" overflow="visible"><path d="M33.72 36.411h8.073c2.296 0 3.75-1.263 3.75-3.3 0-1.913-1.454-3.3-3.75-3.3H33.72c-.268 0-.497.23-.497.46v5.663c.038.268.23.46.497.46zm0 13.048h8.34c2.564 0 4.094-1.3 4.094-3.597 0-2-1.454-3.597-4.094-3.597h-8.34c-.268 0-.497.23-.497.46v6.237c.038.306.23.497.497.497zM63.257.139l-23.875 23.8h3.903c6.084 0 9.68 3.826 9.68 7.997 0 3.3-2.22 5.7-4.6 6.772-.383.153-.383.7.038.842 2.755 1.07 4.706 3.94 4.706 7.308 0 4.744-3.176 8.532-9.336 8.532H26.87c-.268 0-.497-.23-.497-.46V36.909L.164 63.002c-.344.344-.115.957.383.957h63.016a.43.43 0 0 0 .42-.42V.484c.115-.42-.42-.65-.727-.344z" stroke="none" fill="#34313f" fill-rule="nonzero"/></symbol></svg>