<?xml version="1.0" encoding="iso-8859-1"?>
<!-- Generator: Adobe Illustrator 19.0.0, SVG Export Plug-In . SVG Version: 6.00 Build 0)  -->
<svg version="1.1" id="Layer_1" xmlns="http://www.w3.org/2000/svg" xmlns:xlink="http://www.w3.org/1999/xlink" x="0px" y="0px"
	 viewBox="0 0 512 512" style="enable-background:new 0 0 512 512;" xml:space="preserve">
<polygon style="fill:#E0B76E;" points="372.718,190.761 256.002,503.904 36.688,380.246 36.688,132.907 "/>
<polygon style="fill:#F4CE8F;" points="256.002,9.249 36.688,132.907 256.002,256.576 256.002,503.904 475.316,380.246 
	475.316,132.907 "/>
<polygon style="fill:#F2CA7F;" points="256.987,255.421 256.987,502.748 476.301,379.09 476.301,131.751 "/>
<polyline style="fill:#8CC1EA;" points="177.196,459.48 177.196,212.14 267.779,161.059 267.79,161.059 267.788,161.059 
	193.595,161.059 193.971,126.161 193.977,126.158 109.346,173.876 109.346,420.36 "/>
<polyline style="fill:#79B1D6;" points="177.196,459.48 177.196,212.14 109.346,173.876 109.346,420.36 "/>
<polyline style="fill:#8CC1EA;" points="329.145,49.986 238.563,101.068 238.551,101.068 238.554,101.068 312.746,101.068 
	312.371,135.966 312.365,135.969 396.995,88.251 "/>
<path d="M368.8,289.539c2.731-3.93,1.759-9.332-2.172-12.064l-23.626-16.418c-2.006-1.394-4.508-1.875-6.888-1.329
	c-2.382,0.548-4.419,2.073-5.615,4.203l-24.38,43.411c-2.344,4.173-0.861,9.458,3.312,11.802c1.343,0.754,2.8,1.112,4.237,1.112
	c3.031,0,5.975-1.594,7.565-4.425l8.156-14.521v108.017c0,4.787,3.88,8.668,8.668,8.668c4.788,0,8.668-3.881,8.668-8.668V284.753
	l10.012,6.958C360.669,294.444,366.068,293.469,368.8,289.539z"/>
<path d="M426.408,325.227c-4.177-2.345-9.458-0.861-11.802,3.312l-8.157,14.522V235.045c0-4.787-3.88-8.668-8.668-8.668
	c-4.788,0-8.668,3.881-8.668,8.668v124.573l-10.012-6.958c-3.935-2.733-9.333-1.758-12.064,2.172
	c-2.731,3.93-1.759,9.332,2.172,12.064l23.626,16.418c1.465,1.017,3.194,1.55,4.946,1.55c0.648,0,1.299-0.073,1.942-0.22
	c2.381-0.548,4.419-2.073,5.615-4.203l24.381-43.411C432.065,332.855,430.582,327.571,426.408,325.227z"/>
<path d="M479.57,124.783L260.256,1.117c-2.642-1.49-5.872-1.49-8.514,0L32.427,124.783c-2.725,1.537-4.41,4.423-4.41,7.55v247.332
	c0,3.128,1.685,6.014,4.41,7.55l140.518,79.235c0.061,0.035,0.121,0.071,0.184,0.103l78.613,44.329
	c1.321,0.745,2.79,1.118,4.258,1.118c1.469,0,2.935-0.372,4.258-1.118l219.315-123.666c2.725-1.537,4.41-4.423,4.41-7.55V132.334
	C483.981,129.205,482.295,126.319,479.57,124.783z M318.909,94.395c-1.628-1.646-3.847-2.573-6.162-2.573H271.58l57.118-32.211
	l50.207,28.311l-57.707,32.538l0.216-19.877C321.439,98.269,320.537,96.04,318.909,94.395z M45.351,147.171l55.327,31.198v187.453
	c0,4.787,3.881,8.668,8.668,8.668c4.787,0,8.668-3.881,8.668-8.668V188.144l50.515,28.484v227.431l-50.515-28.484v-20.861
	c0-4.787-3.881-8.668-8.668-8.668s-8.668,3.881-8.668,8.668v11.086l-55.327-31.198V147.171z M187.434,166.576
	c1.628,1.646,3.847,2.573,6.162,2.573h41.168l-57.569,32.464l-50.207-28.311l58.155-32.79l-0.214,19.877
	C184.903,162.703,185.805,164.931,187.434,166.576z M247.331,488.493l-61.467-34.66v-227.43l61.467,34.66V488.493z M264.666,488.493
	v-227.43l112.308-63.328c4.17-2.352,5.644-7.638,3.294-11.808c-2.351-4.17-7.636-5.644-11.808-3.294l-112.462,63.415l-61.158-34.486
	l76.906-43.368c0.543-0.28,1.054-0.616,1.523-1c1.944-1.589,3.185-4.007,3.185-6.715c0-4.787-3.88-8.668-8.668-8.668h-65.431
	l0.279-25.816c0.084-1.718-0.341-3.476-1.324-5.036c-2.465-3.912-7.565-5.201-11.592-2.931l-80.38,45.321L54.33,132.334
	L255.999,18.618l55.053,31.043L234.61,92.768c-2.806,1.435-4.726,4.355-4.726,7.722c0,4.787,3.882,8.668,8.669,8.668h65.431
	l-0.28,25.85c-0.079,1.755,0.373,3.547,1.402,5.122c1.656,2.534,4.426,3.929,7.265,3.929c1.445,0,2.909-0.362,4.251-1.119
	l79.931-45.068l61.114,34.46l-54.159,30.539c-4.17,2.352-5.644,7.638-3.294,11.808s7.639,5.643,11.808,3.294l54.625-30.802v227.433
	L264.666,488.493z"/>
<g>
</g>
<g>
</g>
<g>
</g>
<g>
</g>
<g>
</g>
<g>
</g>
<g>
</g>
<g>
</g>
<g>
</g>
<g>
</g>
<g>
</g>
<g>
</g>
<g>
</g>
<g>
</g>
<g>
</g>
</svg>
