<?xml version="1.0" encoding="iso-8859-1"?>
<!-- Generator: Adobe Illustrator 19.0.0, SVG Export Plug-In . SVG Version: 6.00 Build 0)  -->
<svg version="1.1" id="Layer_1" xmlns="http://www.w3.org/2000/svg" xmlns:xlink="http://www.w3.org/1999/xlink" x="0px" y="0px"
	 viewBox="0 0 512.001 512.001" style="enable-background:new 0 0 512.001 512.001;" xml:space="preserve">
<polygon style="fill:#E0B76E;" points="372.718,190.761 256.002,503.904 36.688,380.246 36.688,132.907 "/>
<polygon style="fill:#F4CE8F;" points="256.002,9.249 36.688,132.907 256.002,256.576 256.002,503.904 475.316,380.246 
	475.316,132.907 "/>
<polygon style="fill:#F2CA7F;" points="254.846,255.074 254.846,502.402 474.16,378.744 474.16,131.404 "/>
<path d="M479.57,124.783L260.255,1.117c-2.642-1.49-5.872-1.49-8.514,0L32.427,124.783c-2.725,1.537-4.41,4.423-4.41,7.55v247.332
	c0,3.128,1.685,6.014,4.41,7.55l92.541,52.181c1.345,0.759,2.807,1.12,4.249,1.12c3.027,0,5.966-1.588,7.558-4.412
	c2.351-4.17,0.877-9.456-3.294-11.806l-88.13-49.694V147.171l201.98,113.891v227.43l-81.436-45.92
	c-4.17-2.351-9.456-0.877-11.808,3.294c-2.351,4.17-0.877,9.456,3.294,11.808l94.362,53.209c1.321,0.745,2.79,1.118,4.258,1.118
	c1.468,0,2.937-0.372,4.258-1.118l219.315-123.666c2.725-1.537,4.41-4.423,4.41-7.55V132.334
	C483.981,129.205,482.295,126.319,479.57,124.783z M264.666,488.493v-227.43l131.773-74.303c4.17-2.352,5.644-7.638,3.293-11.808
	c-2.352-4.171-7.639-5.646-11.806-3.293l-131.927,74.39L54.331,132.334L255.999,18.618l201.668,113.715l-39.393,22.213
	c-4.17,2.351-5.644,7.637-3.294,11.806c2.352,4.17,7.636,5.642,11.808,3.294l39.857-22.476v227.433L264.666,488.493z"/>
<path d="M87.989,197.482c0-4.787-3.881-8.668-8.668-8.668c-4.787,0-8.668,3.881-8.668,8.668v35.32c0,4.787,3.881,8.668,8.668,8.668
	c4.787,0,8.668-3.881,8.668-8.668V197.482z"/>
<path d="M79.321,255.335c-4.787,0-8.668,3.881-8.668,8.668v86.545c0,4.787,3.881,8.668,8.668,8.668c4.787,0,8.668-3.881,8.668-8.668
	v-86.544C87.989,259.216,84.108,255.335,79.321,255.335z"/>
<path d="M120.048,215.557c0-4.787-3.881-8.668-8.668-8.668c-4.787,0-8.668,3.881-8.668,8.668V339.73
	c0,4.787,3.881,8.668,8.668,8.668c4.787,0,8.668-3.881,8.668-8.668V215.557z"/>
<path d="M216.2,422.835V269.78c0-4.787-3.881-8.668-8.668-8.668c-4.787,0-8.668,3.881-8.668,8.668v153.055
	c0,4.787,3.881,8.668,8.668,8.668C212.32,431.503,216.2,427.622,216.2,422.835z"/>
<path d="M143.427,224.964c-4.787,0-8.668,3.881-8.668,8.668v124.174c0,4.787,3.881,8.668,8.668,8.668
	c4.787,0,8.668-3.881,8.668-8.668V233.631C152.095,228.845,148.214,224.964,143.427,224.964z"/>
<path d="M175.486,384.547c4.787,0,8.668-3.881,8.668-8.668V251.706c0-4.787-3.881-8.668-8.668-8.668
	c-4.787,0-8.668,3.881-8.668,8.668V375.88C166.818,380.667,170.699,384.547,175.486,384.547z"/>
<path d="M118.591,363.812c-0.324-0.474-0.682-0.925-1.086-1.318c-0.393-0.405-0.844-0.763-1.317-1.075
	c-0.462-0.312-0.971-0.589-1.491-0.797c-0.52-0.22-1.075-0.393-1.618-0.497c-1.121-0.231-2.277-0.231-3.398,0
	c-0.543,0.104-1.098,0.277-1.618,0.497c-0.52,0.208-1.029,0.485-1.491,0.797c-0.474,0.312-0.925,0.67-1.317,1.075
	c-0.404,0.393-0.763,0.844-1.086,1.318c-0.312,0.474-0.578,0.971-0.797,1.491c-0.208,0.532-0.381,1.075-0.485,1.63
	c-0.116,0.555-0.173,1.121-0.173,1.687c0,0.566,0.058,1.133,0.173,1.699c0.104,0.555,0.277,1.098,0.485,1.618
	c0.22,0.52,0.485,1.029,0.797,1.502c0.324,0.474,0.682,0.913,1.086,1.317c0.393,0.393,0.844,0.751,1.317,1.075
	c0.462,0.312,0.971,0.578,1.491,0.797c0.52,0.208,1.075,0.381,1.618,0.497c0.566,0.104,1.133,0.162,1.699,0.162
	s1.133-0.058,1.699-0.162c0.543-0.116,1.098-0.289,1.618-0.497c0.52-0.22,1.029-0.485,1.491-0.797
	c0.474-0.324,0.925-0.682,1.317-1.075c0.404-0.404,0.763-0.844,1.086-1.317c0.312-0.474,0.578-0.982,0.797-1.502
	c0.208-0.52,0.381-1.063,0.485-1.618c0.116-0.566,0.173-1.133,0.173-1.699c0-0.566-0.058-1.133-0.173-1.687
	c-0.104-0.555-0.277-1.098-0.485-1.63C119.169,364.783,118.903,364.285,118.591,363.812z"/>
<path d="M151.436,383.377c-0.22-0.52-0.485-1.017-0.797-1.491c-0.324-0.474-0.682-0.913-1.086-1.318
	c-0.393-0.404-0.844-0.763-1.317-1.075c-0.462-0.312-0.971-0.589-1.491-0.797c-0.52-0.22-1.075-0.381-1.618-0.497
	c-1.121-0.22-2.277-0.22-3.398,0c-0.543,0.116-1.098,0.277-1.618,0.497c-0.52,0.208-1.029,0.485-1.491,0.797
	c-0.474,0.312-0.925,0.67-1.317,1.075c-0.404,0.405-0.763,0.844-1.086,1.318c-0.312,0.474-0.578,0.971-0.797,1.491
	c-0.208,0.532-0.381,1.075-0.485,1.63c-0.116,0.555-0.173,1.121-0.173,1.687c0,2.288,0.925,4.519,2.543,6.137
	c0.393,0.393,0.844,0.751,1.317,1.075c0.462,0.312,0.971,0.578,1.491,0.797c0.52,0.208,1.075,0.381,1.618,0.485
	c0.566,0.116,1.133,0.173,1.699,0.173c2.288,0,4.519-0.925,6.125-2.531c1.618-1.618,2.542-3.848,2.542-6.137
	c0-0.566-0.058-1.133-0.173-1.687C151.817,384.453,151.644,383.908,151.436,383.377z"/>
<path d="M166.991,406.467c0.104,0.555,0.277,1.098,0.485,1.618c0.22,0.52,0.485,1.029,0.797,1.502
	c0.324,0.474,0.682,0.913,1.086,1.318c0.393,0.393,0.844,0.763,1.317,1.075c0.462,0.312,0.971,0.578,1.491,0.797
	s1.075,0.381,1.63,0.497c0.555,0.104,1.121,0.162,1.687,0.162c0.566,0,1.133-0.058,1.699-0.162c0.543-0.116,1.098-0.277,1.618-0.497
	c0.52-0.22,1.029-0.485,1.491-0.797c0.474-0.312,0.925-0.682,1.317-1.075c0.404-0.405,0.763-0.844,1.086-1.318
	c0.312-0.474,0.578-0.982,0.797-1.502c0.208-0.52,0.381-1.063,0.485-1.618c0.116-0.566,0.173-1.133,0.173-1.699
	s-0.058-1.133-0.173-1.687c-0.104-0.555-0.277-1.098-0.485-1.63c-0.22-0.52-0.485-1.017-0.797-1.491
	c-0.324-0.474-0.682-0.925-1.086-1.318c-0.393-0.404-0.844-0.763-1.317-1.075c-0.462-0.312-0.971-0.589-1.491-0.797
	c-0.52-0.22-1.075-0.381-1.618-0.497c-1.121-0.22-2.277-0.22-3.386,0c-0.555,0.116-1.109,0.277-1.63,0.497
	c-0.52,0.208-1.029,0.485-1.491,0.797c-0.474,0.312-0.925,0.67-1.317,1.075c-0.404,0.393-0.763,0.844-1.086,1.318
	c-0.312,0.474-0.578,0.971-0.797,1.491c-0.208,0.532-0.381,1.075-0.485,1.63c-0.116,0.555-0.173,1.121-0.173,1.687
	C166.818,405.335,166.876,405.902,166.991,406.467z"/>
<g>
</g>
<g>
</g>
<g>
</g>
<g>
</g>
<g>
</g>
<g>
</g>
<g>
</g>
<g>
</g>
<g>
</g>
<g>
</g>
<g>
</g>
<g>
</g>
<g>
</g>
<g>
</g>
<g>
</g>
</svg>
