<svg xmlns="http://www.w3.org/2000/svg" viewBox="95 175 220 220">
  <path d="M 107 224.8 c 57.6 0 115.1 -0.1 172.7 0 c 14.9 0.2 26.8 15.5 24.2 30 c -1.2 8.8 -8 15 -13.3 21.5 c -21.1 25.4 -42.8 50.4 -63.6 75.9 c -10.1 -7.8 -12.3 -23.2 -5.6 -34 c -11.3 -0.1 -22.6 0.2 -34 -0.2 c -13 -1 -22.9 -12.9 -23.4 -25.6 c 26.3 -0.3 52.6 -0.1 79 -0.1 c 2.3 -2.6 4.5 -5.2 6.8 -7.8 c -30 -0.2 -59.9 0.1 -89.9 -0.1 c -13.3 -0.5 -24 -12.8 -24.2 -25.8 c 45.3 0 90.6 0 135.9 0 l 6.5 -7.9 c -48.6 0 -97.2 0 -145.9 0 c -13.8 -0.2 -24.7 -12.6 -25.2 -25.9" fill="#FF3934"/>
</svg>