<svg id="Layer_1" data-name="Layer 1" xmlns="http://www.w3.org/2000/svg" viewBox="0 0 1000 1000"><defs><style>.cls-1{fill:#ff3008;}</style></defs><path class="cls-1" d="M847.13,388.88C813.84,327.18,748.72,288.77,677.9,289H142.08a18.45,18.45,0,0,0-16.93,11.3,18.05,18.05,0,0,0,4,19.76L245.85,435.89a55.21,55.21,0,0,0,39,16H662.54c26.92-.29,48.93,21,49.21,47.58s-21.3,48.29-48.22,48.55H403.11a18.45,18.45,0,0,0-17,11.25,18,18,0,0,0,3.95,19.81L506.88,695a55.27,55.27,0,0,0,39,16H663.63c153.24,0,269.11-161.68,183.5-322.18"/></svg>