<svg enable-background="new 0 0 400 400" viewBox="0 0 400 400" xmlns="http://www.w3.org/2000/svg"><g transform="translate(61 125)"><circle cx="311.9" cy="98" fill="#2396fb" r="27.1"/><g fill="#303f9f"><path d="m116.1 53.7h-130.7c8.3 22.2 27.6 32.6 46.3 32.6 19.4 0 35.6-9.3 46.7-18.7l26.6 32.2c-24.6 21.5-51.6 29.1-74 29.1-52.6 0-92-41.5-92-91 0-49.1 39.1-87.5 88.9-87.5 50.5-.1 88.2 40 88.2 103.3zm-130.4-34.6h81.3c-3.5-17-18.7-31.5-40.1-31.5-20.8.1-37.7 13.2-41.2 31.5z"/><path d="m285 38.9c0 49.1-36.2 89-81 89-19.7 0-36.5-6.6-49.4-19.8v88.7c0 1.6-1.3 2.9-2.9 2.9h-40.9v-160.8c0-48.8 35.9-88.6 87.2-88.6 51.2 0 87 39.9 87 88.6zm-43.4 0c0-27.3-19.4-47.8-43.4-47.8s-43.4 21.4-43.4 47.8c0 27 19.4 48.8 43.4 48.8s43.4-21.1 43.4-48.8z"/></g></g></svg>