<svg xmlns="http://www.w3.org/2000/svg" viewBox="-7 -3 60 60">
    <path d="M23.3,0c-0.5,0-1,0-1.5,0C15.6,3.8,9.3,7.5,3.1,11.3C2,11.9,1,12.7,0,13.4v25.7c5.9,3.6,11.9,7.2,17.8,10.8   c1.4,0.8,2.7,1.7,4,2.6c0.5,0,1,0,1.5,0c7.3-4.4,14.7-8.8,21.8-13V13L23.3,0z" fill="#f05353"/>
  <path d="M39.4,24.2c0-2.9,0-5,0-7.9c-5.1-2.9-10.4-6.1-15.9-9c-0.8-0.4-2.3,0.1-3.2,0.7c-4,2.2-7.9,4.4-11.7,6.8   c-4,2.4-4,5.6,0,7.9c2.4,1.4,4.7,2.8,7.1,4.1c0,0,6.7,3.9,9.9,5.8c0.8,0.4,1.4,1,2.4,1.8c-2,1.3-3.7,2.2-5.6,3.4   c-5.6-3.3-11-6.3-16.8-9.7c0,2.9,0,5,0,7.9c5.1,2.9,10.4,6.1,15.9,9c0.8,0.4,2.3-0.1,3.2-0.7c4-2.2,7.9-4.4,11.7-6.8   c4-2.4,4-5.6,0-7.9c-2.4-1.4-7.2-4.1-7.2-4.1c-3.3-1.9-6.5-3.9-9.8-5.8c-0.8-0.4-1.4-1-2.4-1.8c2-1.3,3.7-2.2,5.6-3.4   C28.2,17.7,33.5,20.9,39.4,24.2z
" fill="#fff"/>
</svg>