<svg xmlns="http://www.w3.org/2000/svg" viewBox="0 0 41 38"><path fill="#384750" fill-rule="evenodd" d="M41 15c0-4.4-3.6-8-8-8-3.8 0-5 1.5-9 2-2.4.3-2.3-1-5-1-2 0-4 1-4 1s-1.9-2.3-3-2c-1.5.5 0 5 0 5s-1 2-3 4c-1.5 1.5-5 2.3-6.8 2.8C2.3 9.6 9.8 2.1 19 2.1c4 0 7.7 1.4 10.6 3.8.7-.2 1.6-.3 2.5-.4-3.4-3.3-8-5.4-13.2-5.4C8.6.1.1 8.6.1 19 .1 29.4 8.6 37.8 19 37.8c9.1 0 16.7-6.4 18.4-15L35 24c-2.1 6.6-8.1 11.5-15.4 11.8 1-1.7 3.3-4.9 6.3-7.8C32.6 21.6 41 22.6 41 15zm-20.5-1c-.8 0-1.5-.7-1.5-1.5s.7-1.5 1.5-1.5 1.5.7 1.5 1.5-.7 1.5-1.5 1.5z"/></svg>