<svg xmlns="http://www.w3.org/2000/svg" viewBox="35.5 -19 330 330">
  <path d="M222.76,292.48H178.23l-5.89-38.87A110.53,110.53,0,0,1,144.46,242l-31.64,23.35-31.5-31.47,23.35-31.66a109.68,109.68,0,0,1-11.55-27.9l-38.88-5.85V124l38.87-5.88a110.51,110.51,0,0,1,11.56-27.88L81.32,58.57l31.5-31.49,31.64,23.35a110,110,0,0,1,27.88-11.56L178.23,0h44.53l5.85,38.87a109.88,109.88,0,0,1,27.9,11.56l31.63-23.35,31.51,31.49L296.3,90.21a110.29,110.29,0,0,1,11.55,27.88L346.72,124v44.54l-38.87,5.85a110.06,110.06,0,0,1-11.55,27.89l23.35,31.65-31.5,31.5-31.64-23.35a110.57,110.57,0,0,1-27.9,11.56l-5.85,38.87ZM200.48,97.34a48.9,48.9,0,1,0,48.89,48.89,48.94,48.94,0,0,0-48.89-48.89Z" fill="#6cbe45"/>
</svg>