<svg xmlns="http://www.w3.org/2000/svg" viewBox="-70 -35 750 750">
  <path d="M607.6,169.6L607.6,169.6l-0.1-0.2c-0.7-1.2-1.4-2.3-2.2-3.4c-0.2-0.3-0.4-0.6-0.6-0.8c-0.6-0.8-1.3-1.6-2-2.4   c-0.4-0.4-0.8-0.9-1.2-1.3c-0.6-0.6-1.1-1.1-1.7-1.7c-1.6-1.5-3.4-2.9-5.2-4.2c-0.5-0.3-1-0.7-1.5-1c-0.7-0.4-1.4-0.9-2.2-1.3   c-1.3-0.7-2.6-1.4-3.9-1.9c-0.5-0.2-1.1-0.5-1.6-0.7c-0.8-0.3-1.7-0.6-2.6-0.9c-0.5-0.2-1-0.3-1.5-0.5c-1-0.3-2-0.5-3-0.8   c-0.4-0.1-0.7-0.2-1.1-0.2c-1.3-0.2-2.5-0.4-3.8-0.6c-0.1,0-0.3,0-0.4,0c-9.4-1-18.9,1-27.2,5.6L306.8,288L136,191.7l171-96.4   l114,64.2c21.7,12.2,49.4,5,61.9-16.2c12.5-21.2,5.1-48.2-16.6-60.4l-136.6-77c-14.1-7.9-31.2-7.9-45.3,0L23.8,152.8   c-7.3,3.8-13.5,9.6-17.7,16.8c-12.5,21.2-5.1,48.2,16.6,60.4l261.5,147.4c0,0,0.1,0,0.1,0.1c1.4,0.8,2.8,1.4,4.2,2   c0.4,0.2,0.8,0.4,1.2,0.6c0.9,0.3,1.8,0.6,2.6,0.9c4.7,1.6,9.6,2.4,14.4,2.4h0.1c4.9,0,9.9-0.9,14.7-2.5c0.8-0.3,1.6-0.5,2.3-0.8   c0.5-0.2,0.9-0.4,1.3-0.6c1.4-0.6,2.8-1.2,4.1-2c0,0,0.1,0,0.1,0l193.6-109.2V461L306.9,582.9L90.7,461V339.1   c0-24.4-20.3-44.2-45.3-44.2c-25,0-45.3,19.8-45.3,44.2v147.4c0,15.8,8.6,30.4,22.6,38.3l261.5,147.4c6.9,3.9,14.7,5.9,22.6,5.9   c7.8,0,15.6-2,22.7-5.9L591,524.8c14-7.9,22.6-22.5,22.6-38.3V191.7C613.7,183.6,611.4,176.1,607.6,169.6" fill="#2470AF"/>
</svg>