<svg id="Layer_1" data-name="Layer 1" xmlns="http://www.w3.org/2000/svg" viewBox="0 0 394.67 111"><defs><style>.cls-1{fill:#666;}</style></defs><title>AI_Shipwire</title><path class="cls-1" d="M139.33,41.55a.8.8,0,0,0-.62-.3H122.88a.8.8,0,0,0-.78.63L111.77,90.41a.79.79,0,0,0,.78,1h15.83a.81.81,0,0,0,.78-.63l10.33-48.52A.8.8,0,0,0,139.33,41.55Z"/><path class="cls-1" d="M108.87,43.74c-2.6-2.53-6.38-3.86-11-3.86-5.41,0-10.23,2.07-14.5,6.29L88,25a.8.8,0,0,0-.78-1H71.52a.79.79,0,0,0-.78.63l-14,65.7a.77.77,0,0,0,.16.66.79.79,0,0,0,.62.3H73.34a.8.8,0,0,0,.78-.63l5.4-25.31C81.16,57.85,85.16,54,90.27,54c3.36.12,4.47,1.28,4.6,4.78a37.44,37.44,0,0,1-.9,6l-5.4,25.68a.79.79,0,0,0,.16.66.8.8,0,0,0,.62.3h15.83a.8.8,0,0,0,.78-.63l5.67-26.87a44.65,44.65,0,0,0,1.2-9.48C112.84,49.94,111.47,46.27,108.87,43.74Z"/><path class="cls-1" d="M39.66,51.57C34.83,49.22,31,47.73,28.42,46.3s-3.66-2.64-3.68-4.52c0-3,2.79-5.56,8.62-5.6,6.76.11,9.73,2.64,9.81,7.88v.18a.81.81,0,0,0,.23.56A.82.82,0,0,0,44,45H59.26a.79.79,0,0,0,.79-.83C59.47,30,49.76,22.33,32.73,22.43c-7.77,0-14,2-18.32,5.61A18.57,18.57,0,0,0,7.78,42.78c0,8.77,5.19,14.69,15.28,19.45C28,64.62,32,66.18,34.68,67.7s3.92,2.85,3.93,4.87c0,3.49-3.41,6.29-9.91,6.33-7.48-.13-10.43-2.65-10.73-9.37a.8.8,0,0,0-.8-.77H1.44A.8.8,0,0,0,.86,69a.81.81,0,0,0-.22.59c.68,15,10.79,23.61,27.88,23.61h.27c8.32,0,15-2.06,19.68-5.86s7.19-9.32,7.19-16C55.69,62,50.06,56.48,39.66,51.57Z"/><path class="cls-1" d="M330.17,56.92,333.46,41a.79.79,0,0,0-.69-1,13,13,0,0,0-1.55-.1c-6.78,0-11.79,2.61-15.45,8.12L317,42.21a.81.81,0,0,0-.16-.66.8.8,0,0,0-.62-.29H301.58a.8.8,0,0,0-.78.63L290.46,90.41a.8.8,0,0,0,.78,1h15.82a.8.8,0,0,0,.78-.63l3.39-16c1.27-6.05,2.58-10.66,4.6-13.65s4.63-4.43,9.07-4.46a11.05,11.05,0,0,1,4.18.85.82.82,0,0,0,.68,0A.8.8,0,0,0,330.17,56.92Z"/><path class="cls-1" d="M294.74,41.55a.81.81,0,0,0-.62-.3H278.3a.8.8,0,0,0-.78.63L267.18,90.41a.8.8,0,0,0,.78,1h15.82a.8.8,0,0,0,.78-.63L294.9,42.22A.79.79,0,0,0,294.74,41.55Z"/><path class="cls-1" d="M376.87,45.9c-4-4.11-10-6.3-17.33-6.29a27,27,0,0,0-20.13,8.53,30.14,30.14,0,0,0-7.75,20.68c0,7.19,2.21,13.2,6.33,17.39s10.13,6.52,17.52,6.52h0c12.24,0,22.11-6.58,25.07-16.38a.8.8,0,0,0-.76-1H363.29a.79.79,0,0,0-.71.45,7.24,7.24,0,0,1-7,4.12c-4.49-.09-6.69-2.3-6.8-7.52v-.85h32.69a.81.81,0,0,0,.79-.67,46.32,46.32,0,0,0,.74-7.53C383,56,380.91,50,376.87,45.9ZM366.11,60.07h-16c1.21-5.61,4.72-8.52,9.38-8.55,4.34.08,6.6,2.55,6.7,8A5.49,5.49,0,0,1,366.11,60.07Z"/><path class="cls-1" d="M187.82,45c-3.06-3.61-7.54-5.51-12.94-5.5a18.62,18.62,0,0,0-13.64,5.93l.7-3.23a.79.79,0,0,0-.78-1h-15a.8.8,0,0,0-.78.63l-14.46,68a.8.8,0,0,0,.78,1h15.83a.79.79,0,0,0,.78-.63l5.29-24.9a15.05,15.05,0,0,0,13.69,7.62c14.58,0,25.2-13.78,25.23-32.5C192.51,53.85,190.88,48.62,187.82,45ZM171.67,73.58c-2,2.94-4.56,4.59-7.49,4.59-4.34-.07-6.8-2.65-6.89-8.25,0-9.39,4.7-16.46,11.55-16.47,3.82.06,5.88,2.48,6,8.16A21.93,21.93,0,0,1,171.67,73.58Z"/><path class="cls-1" d="M273.75,41.64a.8.8,0,0,0-.68-.38H257a.81.81,0,0,0-.73.47l-13.11,29,.65-28.62a.8.8,0,0,0-.23-.57.79.79,0,0,0-.57-.24H227.69a.79.79,0,0,0-.73.48l-13.09,29.5L213.39,42a.8.8,0,0,0-.8-.79H197.23a.8.8,0,0,0-.8.87l4.2,48.52a.8.8,0,0,0,.79.73h16.1a.8.8,0,0,0,.73-.47L231.11,62l-.56,28.58a.8.8,0,0,0,.23.57.82.82,0,0,0,.57.24h16.19a.8.8,0,0,0,.71-.43l25.52-48.53A.8.8,0,0,0,273.75,41.64Z"/><path class="cls-1" d="M124.44,35.22h149a.8.8,0,0,0,.78-.66L277,21.78a.8.8,0,0,0-.85-.94L124.38,33.62a.8.8,0,0,0,.06,1.6Z"/><path class="cls-1" d="M298.73,21.23a.81.81,0,0,0-.62-.3h-16a.8.8,0,0,0-.79.64l-.12.57L278.7,34.24a.8.8,0,0,0,.16.67.82.82,0,0,0,.63.3h15.89a.81.81,0,0,0,.79-.63l2.73-12.68A.81.81,0,0,0,298.73,21.23Z"/><path class="cls-1" d="M392.49,41.22A5.4,5.4,0,0,1,394,45.06,5.31,5.31,0,0,1,392.4,49a5.59,5.59,0,0,1-3.88,1.6,5.42,5.42,0,0,1-3.92-1.67A5.47,5.47,0,0,1,383,45.06a5.54,5.54,0,0,1,1.68-4,5.33,5.33,0,0,1,3.82-1.55A5.44,5.44,0,0,1,392.49,41.22Zm-7.1.6A4.54,4.54,0,0,0,384,45.06a4.36,4.36,0,0,0,1.28,3.12,4.41,4.41,0,0,0,3.21,1.38,4.59,4.59,0,0,0,3.19-1.3,4.51,4.51,0,0,0-6.32-6.45Zm3.23.11c1.73,0,2.61.62,2.61,1.75A1.65,1.65,0,0,1,390,45.3L391.3,48h-1.83l-1.13-2.4h-.49V48h-1.66v-6Zm-.77,2.66h.59c.73,0,1.09-.26,1.09-.79s-.37-.83-1.18-.83h-.5Z"/></svg>