<?xml version="1.0" encoding="utf-8"?>
<!-- Generator: Adobe Illustrator 23.0.1, SVG Export Plug-In . SVG Version: 6.00 Build 0)  -->
<svg version="1.1" id="Layer_1" xmlns="http://www.w3.org/2000/svg" xmlns:xlink="http://www.w3.org/1999/xlink" x="0px" y="0px"
	 viewBox="0 0 180 52.6" enable-background="new 0 0 180 52.6" xml:space="preserve">
<g>
	<g>
		<g>
			<path fill="#242E3A" d="M51.1,32l1.1-1.6c0.9,1.1,2.7,2,4.7,2c2.2,0,3.3-1,3.3-2.4c0-3.4-8.8-1.3-8.8-6.5c0-2.2,1.9-4,5.3-4
				c2.4,0,4.1,0.9,5.2,2l-1,1.5c-0.8-1-2.4-1.8-4.2-1.8c-1.9,0-3.1,1-3.1,2.2c0,3.1,8.8,1,8.8,6.5c0,2.4-1.9,4.2-5.6,4.2
				C54.4,34.2,52.5,33.5,51.1,32z"/>
			<path fill="#242E3A" d="M75.4,33.9v-9.3c0-2.5-1.3-3.2-3.2-3.2c-1.7,0-3.3,1-4.2,2.2v10.3h-2.2V14.4h2.2v7.4
				c1-1.2,2.9-2.4,5.1-2.4c2.9,0,4.5,1.5,4.5,4.5v9.9L75.4,33.9L75.4,33.9z"/>
			<path fill="#242E3A" d="M81.6,16.3c0-0.8,0.7-1.5,1.5-1.5c0.8,0,1.5,0.7,1.5,1.5c0,0.8-0.7,1.5-1.5,1.5
				C82.3,17.7,81.6,17,81.6,16.3z M82,33.9V19.7h2.2v14.1C84.3,33.9,82,33.9,82,33.9z"/>
			<path fill="#242E3A" d="M90.8,31.7v7.5h-2.2V19.7h2.2v2.1c1-1.5,2.8-2.4,4.8-2.4c3.7,0,6.3,2.8,6.3,7.4s-2.6,7.4-6.3,7.4
				C93.6,34.2,91.9,33.3,90.8,31.7z M99.5,26.8c0-3.1-1.7-5.4-4.5-5.4c-1.7,0-3.5,1-4.2,2.2V30c0.8,1.3,2.5,2.3,4.2,2.3
				C97.8,32.3,99.5,29.9,99.5,26.8z"/>
		</g>
		<g>
			<path fill="#242E3A" d="M115.6,25.7c0-1.7-0.9-2.3-2.4-2.3c-1.3,0-2.2,0.8-2.7,1.4v9.1H106V14.4h4.5v7c0.8-1,2.5-2.1,4.9-2.1
				c3.2,0,4.7,1.8,4.7,4.4v10.1h-4.5L115.6,25.7L115.6,25.7z"/>
			<path fill="#242E3A" d="M129.9,19.4c4.2,0,7.2,3.1,7.2,7.9v1H127c0.3,1.3,1.5,2.5,3.6,2.5c1.3,0,2.6-0.5,3.5-1.2l1.9,2.8
				c-1.4,1.3-3.8,1.9-5.9,1.9c-4.4,0-7.7-2.9-7.7-7.4C122.4,22.7,125.5,19.4,129.9,19.4z M127,25.2h5.8c-0.1-1-0.8-2.4-2.9-2.4
				C127.9,22.9,127.2,24.3,127,25.2z"/>
			<path fill="#242E3A" d="M139.3,19.7h4.5v1.8c0.9-1.1,2.7-2.2,4.4-2.2v4.4c-0.3-0.1-0.6-0.1-1.1-0.1c-1.2,0-2.7,0.5-3.3,1.3v9
				h-4.4V19.7z"/>
			<path fill="#242E3A" d="M149.3,26.8c0-4,2.9-7.4,7.7-7.4c4.9,0,7.7,3.4,7.7,7.4s-2.9,7.4-7.7,7.4
				C152.3,34.2,149.3,30.7,149.3,26.8z M160.1,26.8c0-1.9-1.1-3.4-3.1-3.4c-1.9,0-3.1,1.5-3.1,3.4c0,1.9,1.1,3.5,3.1,3.5
				C159,30.2,160.1,28.6,160.1,26.8z"/>
		</g>
		<g>
			<path fill="#242E3A" d="M171,15.6h-1.4v-1.1h4.1v1.1h-1.4v3.9H171V15.6z"/>
			<path fill="#242E3A" d="M178.7,16.1l-1.3,3.4h-0.6l-1.3-3.4v3.4h-1.3v-5h1.8l1,2.9l1-2.9h1.8v5h-1.3L178.7,16.1L178.7,16.1z"/>
		</g>
	</g>
	<path fill="#F05353" d="M23.3,0c-0.5,0-1,0-1.5,0C15.6,3.8,9.3,7.5,3.1,11.3C2,11.9,1,12.7,0,13.4v25.7c5.9,3.6,11.9,7.2,17.8,10.8
		c1.4,0.8,2.7,1.7,4,2.6c0.5,0,1,0,1.5,0c7.3-4.4,14.7-8.8,21.8-13V13L23.3,0z"/>
	<path fill="#FFFFFF" d="M39.4,24.2c0-2.9,0-5,0-7.9c-5.1-2.9-10.4-6.1-15.9-9c-0.8-0.4-2.3,0.1-3.2,0.7c-4,2.2-7.9,4.4-11.7,6.8
		c-4,2.4-4,5.6,0,7.9c2.4,1.4,4.7,2.8,7.1,4.1c0,0,6.7,3.9,9.9,5.8c0.8,0.4,1.4,1,2.4,1.8c-2,1.3-3.7,2.2-5.6,3.4
		c-5.6-3.3-11-6.3-16.8-9.7c0,2.9,0,5,0,7.9c5.1,2.9,10.4,6.1,15.9,9c0.8,0.4,2.3-0.1,3.2-0.7c4-2.2,7.9-4.4,11.7-6.8
		c4-2.4,4-5.6,0-7.9c-2.4-1.4-7.2-4.1-7.2-4.1c-3.3-1.9-6.5-3.9-9.8-5.8c-0.8-0.4-1.4-1-2.4-1.8c2-1.3,3.7-2.2,5.6-3.4
		C28.2,17.7,33.5,20.9,39.4,24.2z"/>
</g>
</svg>
