<svg width="80" height="80" xmlns="http://www.w3.org/2000/svg" xmlns:svg="http://www.w3.org/2000/svg" enable-background="new 0 0 380 80" version="1.1" xml:space="preserve">
 <style type="text/css">.st0{fill:#8759F2;}
	.st1{fill:#FF3E80;}
	.st2{fill:#FFC300;}
	.st3{fill:#00D4E6;}
	.st4{fill:#221B43;}</style>
 <title>Logo_Color_Horizontal</title>
 <g class="layer">
  <title>Layer 1</title>
  <g id="Logo_Color_Horizontal">
   <path class="st0" d="m40.2,50.4l-13.3,-23.1l-13.4,0c-5.5,0 -8.9,6 -6.2,10.7l20,34.7c2.7,4.7 9.6,4.8 12.4,0l12.9,-22.3c-2.7,4.8 -9.6,4.7 -12.4,0z" id="svg_1"/>
   <path class="st1" d="m53.6,27.3l-26.7,0l13.3,23.1c2.7,4.7 9.6,4.8 12.4,0l7.2,-12.4c2.7,-4.8 -0.8,-10.7 -6.2,-10.7z" id="svg_2"/>
   <path class="st2" d="m66.5,5l-40.1,0c-5.5,0 -8.9,5.9 -6.2,10.7l6.7,11.6l26.7,0c5.5,0 8.9,6 6.2,10.7l12.9,-22.3c2.7,-4.7 -0.7,-10.7 -6.2,-10.7z" id="svg_3"/>
   <path class="st3" d="m20.2,15.7c-1.3,-2.2 -1.3,-4.9 0,-7.1l-12.9,22.3c1.3,-2.2 3.6,-3.6 6.2,-3.6l13.4,0l-6.7,-11.6z" id="svg_4"/>
  </g>
 </g>
</svg>